<?xml version="1.0" encoding="UTF-8" standalone="no"?>
<!DOCTYPE svg PUBLIC "-//W3C//DTD SVG 1.0//EN" "http://www.w3.org/TR/2001/PR-SVG-20010719/DTD/svg10.dtd">
<svg width="35cm" height="19cm" viewBox="-122 -112 700 373" xmlns="http://www.w3.org/2000/svg" xmlns:xlink="http://www.w3.org/1999/xlink">
  <g>
    <rect style="fill: #d6d1f5" x="-110" y="200" width="83.9" height="55"/>
    <path style="fill: #d6d1f5" d="M -110,200 A 10,10 0 0 0 -120,210 L -110,210 z"/>
    <path style="fill: #d6d1f5" d="M -16.1,210 A 10,10 0 0 0 -26.1,200 L -26.1,210 z"/>
    <rect style="fill: #d6d1f5" x="-120" y="210" width="103.9" height="35"/>
    <path style="fill: #d6d1f5" d="M -120,245 A 10,10 0 0 0 -110,255 L -110,245 z"/>
    <path style="fill: #d6d1f5" d="M -26.1,255 A 10,10 0 0 0 -16.1,245 L -26.1,245 z"/>
    <line style="fill: none; fill-opacity:0; stroke-width: 3; stroke: #000000" x1="-110" y1="200" x2="-26.1" y2="200"/>
    <line style="fill: none; fill-opacity:0; stroke-width: 3; stroke: #000000" x1="-110" y1="255" x2="-26.1" y2="255"/>
    <path style="fill: none; fill-opacity:0; stroke-width: 3; stroke: #000000" d="M -110,200 A 10,10 0 0 0 -120,210"/>
    <path style="fill: none; fill-opacity:0; stroke-width: 3; stroke: #000000" d="M -16.1,210 A 10,10 0 0 0 -26.1,200"/>
    <line style="fill: none; fill-opacity:0; stroke-width: 3; stroke: #000000" x1="-120" y1="210" x2="-120" y2="245"/>
    <line style="fill: none; fill-opacity:0; stroke-width: 3; stroke: #000000" x1="-16.1" y1="210" x2="-16.1" y2="245"/>
    <path style="fill: none; fill-opacity:0; stroke-width: 3; stroke: #000000" d="M -120,245 A 10,10 0 0 0 -110,255"/>
    <path style="fill: none; fill-opacity:0; stroke-width: 3; stroke: #000000" d="M -26.1,255 A 10,10 0 0 0 -16.1,245"/>
    <text font-size="12.8" style="fill: #000000;text-anchor:middle;font-family:sans-serif;font-style:normal;font-weight:normal" x="-68.05" y="223.4">
      <tspan x="-68.05" y="223.4">/parties</tspan>
      <tspan x="-68.05" y="239.4">type: person</tspan>
    </text>
  </g>
  <g>
    <rect style="fill: #d6d1f5" x="-90" y="40" width="77.2" height="55"/>
    <path style="fill: #d6d1f5" d="M -90,40 A 10,10 0 0 0 -100,50 L -90,50 z"/>
    <path style="fill: #d6d1f5" d="M -2.8,50 A 10,10 0 0 0 -12.8,40 L -12.8,50 z"/>
    <rect style="fill: #d6d1f5" x="-100" y="50" width="97.2" height="35"/>
    <path style="fill: #d6d1f5" d="M -100,85 A 10,10 0 0 0 -90,95 L -90,85 z"/>
    <path style="fill: #d6d1f5" d="M -12.8,95 A 10,10 0 0 0 -2.8,85 L -12.8,85 z"/>
    <line style="fill: none; fill-opacity:0; stroke-width: 3; stroke: #000000" x1="-90" y1="40" x2="-12.8" y2="40"/>
    <line style="fill: none; fill-opacity:0; stroke-width: 3; stroke: #000000" x1="-90" y1="95" x2="-12.8" y2="95"/>
    <path style="fill: none; fill-opacity:0; stroke-width: 3; stroke: #000000" d="M -90,40 A 10,10 0 0 0 -100,50"/>
    <path style="fill: none; fill-opacity:0; stroke-width: 3; stroke: #000000" d="M -2.8,50 A 10,10 0 0 0 -12.8,40"/>
    <line style="fill: none; fill-opacity:0; stroke-width: 3; stroke: #000000" x1="-100" y1="50" x2="-100" y2="85"/>
    <line style="fill: none; fill-opacity:0; stroke-width: 3; stroke: #000000" x1="-2.8" y1="50" x2="-2.8" y2="85"/>
    <path style="fill: none; fill-opacity:0; stroke-width: 3; stroke: #000000" d="M -100,85 A 10,10 0 0 0 -90,95"/>
    <path style="fill: none; fill-opacity:0; stroke-width: 3; stroke: #000000" d="M -12.8,95 A 10,10 0 0 0 -2.8,85"/>
    <text font-size="12.8" style="fill: #000000;text-anchor:middle;font-family:sans-serif;font-style:normal;font-weight:normal" x="-51.4" y="63.4">
      <tspan x="-51.4" y="63.4">/parties</tspan>
      <tspan x="-51.4" y="79.4">type: group</tspan>
    </text>
  </g>
  <text font-size="12.8" style="fill: #000000;text-anchor:start;font-family:sans-serif;font-style:normal;font-weight:normal" x="-68.05" y="227.5">
    <tspan x="-68.05" y="227.5"></tspan>
  </text>
  <text font-size="12.8" style="fill: #000000;text-anchor:start;font-family:sans-serif;font-style:normal;font-weight:normal" x="-68.05" y="227.5">
    <tspan x="-68.05" y="227.5"></tspan>
  </text>
  <g>
    <rect style="fill: #d6d1f5" x="470" y="200" width="83.9" height="55"/>
    <path style="fill: #d6d1f5" d="M 470,200 A 10,10 0 0 0 460,210 L 470,210 z"/>
    <path style="fill: #d6d1f5" d="M 563.9,210 A 10,10 0 0 0 553.9,200 L 553.9,210 z"/>
    <rect style="fill: #d6d1f5" x="460" y="210" width="103.9" height="35"/>
    <path style="fill: #d6d1f5" d="M 460,245 A 10,10 0 0 0 470,255 L 470,245 z"/>
    <path style="fill: #d6d1f5" d="M 553.9,255 A 10,10 0 0 0 563.9,245 L 553.9,245 z"/>
    <line style="fill: none; fill-opacity:0; stroke-width: 3; stroke: #000000" x1="470" y1="200" x2="553.9" y2="200"/>
    <line style="fill: none; fill-opacity:0; stroke-width: 3; stroke: #000000" x1="470" y1="255" x2="553.9" y2="255"/>
    <path style="fill: none; fill-opacity:0; stroke-width: 3; stroke: #000000" d="M 470,200 A 10,10 0 0 0 460,210"/>
    <path style="fill: none; fill-opacity:0; stroke-width: 3; stroke: #000000" d="M 563.9,210 A 10,10 0 0 0 553.9,200"/>
    <line style="fill: none; fill-opacity:0; stroke-width: 3; stroke: #000000" x1="460" y1="210" x2="460" y2="245"/>
    <line style="fill: none; fill-opacity:0; stroke-width: 3; stroke: #000000" x1="563.9" y1="210" x2="563.9" y2="245"/>
    <path style="fill: none; fill-opacity:0; stroke-width: 3; stroke: #000000" d="M 460,245 A 10,10 0 0 0 470,255"/>
    <path style="fill: none; fill-opacity:0; stroke-width: 3; stroke: #000000" d="M 553.9,255 A 10,10 0 0 0 563.9,245"/>
    <text font-size="12.8" style="fill: #000000;text-anchor:middle;font-family:sans-serif;font-style:normal;font-weight:normal" x="511.95" y="223.4">
      <tspan x="511.95" y="223.4">/parties</tspan>
      <tspan x="511.95" y="239.4">type: person</tspan>
    </text>
  </g>
  <text font-size="12.8" style="fill: #000000;text-anchor:start;font-family:sans-serif;font-style:normal;font-weight:normal" x="470" y="20">
    <tspan x="470" y="20"></tspan>
  </text>
  <text font-size="12.8" style="fill: #000000;text-anchor:start;font-family:sans-serif;font-style:normal;font-weight:normal" x="370" y="10">
    <tspan x="370" y="10"></tspan>
  </text>
  <text font-size="12.8" style="fill: #000000;text-anchor:start;font-family:sans-serif;font-style:normal;font-weight:normal" x="240" y="220">
    <tspan x="240" y="220"></tspan>
  </text>
  <text font-size="12.8" style="fill: #000000;text-anchor:start;font-family:sans-serif;font-style:normal;font-weight:normal" x="481.95" y="87.5">
    <tspan x="481.95" y="87.5"></tspan>
  </text>
  <text font-size="12.8" style="fill: #000000;text-anchor:start;font-family:sans-serif;font-style:normal;font-weight:normal" x="-51.4" y="67.5">
    <tspan x="-51.4" y="67.5"></tspan>
  </text>
  <g>
    <rect style="fill: #ffe6b4" x="-110" y="140" width="96.55" height="39"/>
    <path style="fill: #ffe6b4" d="M -110,140 A 10,10 0 0 0 -120,150 L -110,150 z"/>
    <path style="fill: #ffe6b4" d="M -3.45,150 A 10,10 0 0 0 -13.45,140 L -13.45,150 z"/>
    <rect style="fill: #ffe6b4" x="-120" y="150" width="116.55" height="19"/>
    <path style="fill: #ffe6b4" d="M -120,169 A 10,10 0 0 0 -110,179 L -110,169 z"/>
    <path style="fill: #ffe6b4" d="M -13.45,179 A 10,10 0 0 0 -3.45,169 L -13.45,169 z"/>
    <line style="fill: none; fill-opacity:0; stroke-width: 3; stroke: #000000" x1="-110" y1="140" x2="-13.45" y2="140"/>
    <line style="fill: none; fill-opacity:0; stroke-width: 3; stroke: #000000" x1="-110" y1="179" x2="-13.45" y2="179"/>
    <path style="fill: none; fill-opacity:0; stroke-width: 3; stroke: #000000" d="M -110,140 A 10,10 0 0 0 -120,150"/>
    <path style="fill: none; fill-opacity:0; stroke-width: 3; stroke: #000000" d="M -3.45,150 A 10,10 0 0 0 -13.45,140"/>
    <line style="fill: none; fill-opacity:0; stroke-width: 3; stroke: #000000" x1="-120" y1="150" x2="-120" y2="169"/>
    <line style="fill: none; fill-opacity:0; stroke-width: 3; stroke: #000000" x1="-3.45" y1="150" x2="-3.45" y2="169"/>
    <path style="fill: none; fill-opacity:0; stroke-width: 3; stroke: #000000" d="M -120,169 A 10,10 0 0 0 -110,179"/>
    <path style="fill: none; fill-opacity:0; stroke-width: 3; stroke: #000000" d="M -13.45,179 A 10,10 0 0 0 -3.45,169"/>
    <text font-size="12.7998" style="fill: #000000;text-anchor:middle;font-family:sans-serif;font-style:normal;font-weight:normal" x="-61.725" y="163.4">
      <tspan x="-61.725" y="163.4">/partyrelations</tspan>
    </text>
  </g>
  <g>
    <rect style="fill: #ffe6b4" x="470" y="140" width="96.55" height="39"/>
    <path style="fill: #ffe6b4" d="M 470,140 A 10,10 0 0 0 460,150 L 470,150 z"/>
    <path style="fill: #ffe6b4" d="M 576.55,150 A 10,10 0 0 0 566.55,140 L 566.55,150 z"/>
    <rect style="fill: #ffe6b4" x="460" y="150" width="116.55" height="19"/>
    <path style="fill: #ffe6b4" d="M 460,169 A 10,10 0 0 0 470,179 L 470,169 z"/>
    <path style="fill: #ffe6b4" d="M 566.55,179 A 10,10 0 0 0 576.55,169 L 566.55,169 z"/>
    <line style="fill: none; fill-opacity:0; stroke-width: 3; stroke: #000000" x1="470" y1="140" x2="566.55" y2="140"/>
    <line style="fill: none; fill-opacity:0; stroke-width: 3; stroke: #000000" x1="470" y1="179" x2="566.55" y2="179"/>
    <path style="fill: none; fill-opacity:0; stroke-width: 3; stroke: #000000" d="M 470,140 A 10,10 0 0 0 460,150"/>
    <path style="fill: none; fill-opacity:0; stroke-width: 3; stroke: #000000" d="M 576.55,150 A 10,10 0 0 0 566.55,140"/>
    <line style="fill: none; fill-opacity:0; stroke-width: 3; stroke: #000000" x1="460" y1="150" x2="460" y2="169"/>
    <line style="fill: none; fill-opacity:0; stroke-width: 3; stroke: #000000" x1="576.55" y1="150" x2="576.55" y2="169"/>
    <path style="fill: none; fill-opacity:0; stroke-width: 3; stroke: #000000" d="M 460,169 A 10,10 0 0 0 470,179"/>
    <path style="fill: none; fill-opacity:0; stroke-width: 3; stroke: #000000" d="M 566.55,179 A 10,10 0 0 0 576.55,169"/>
    <text font-size="12.7998" style="fill: #000000;text-anchor:middle;font-family:sans-serif;font-style:normal;font-weight:normal" x="518.275" y="163.4">
      <tspan x="518.275" y="163.4">/partyrelations</tspan>
    </text>
  </g>
  <g>
    <rect style="fill: #a8f6ff" x="190" y="220" width="86.2" height="39"/>
    <path style="fill: #a8f6ff" d="M 190,220 A 10,10 0 0 0 180,230 L 190,230 z"/>
    <path style="fill: #a8f6ff" d="M 286.2,230 A 10,10 0 0 0 276.2,220 L 276.2,230 z"/>
    <rect style="fill: #a8f6ff" x="180" y="230" width="106.2" height="19"/>
    <path style="fill: #a8f6ff" d="M 180,249 A 10,10 0 0 0 190,259 L 190,249 z"/>
    <path style="fill: #a8f6ff" d="M 276.2,259 A 10,10 0 0 0 286.2,249 L 276.2,249 z"/>
    <line style="fill: none; fill-opacity:0; stroke-width: 3; stroke: #000000" x1="190" y1="220" x2="276.2" y2="220"/>
    <line style="fill: none; fill-opacity:0; stroke-width: 3; stroke: #000000" x1="190" y1="259" x2="276.2" y2="259"/>
    <path style="fill: none; fill-opacity:0; stroke-width: 3; stroke: #000000" d="M 190,220 A 10,10 0 0 0 180,230"/>
    <path style="fill: none; fill-opacity:0; stroke-width: 3; stroke: #000000" d="M 286.2,230 A 10,10 0 0 0 276.2,220"/>
    <line style="fill: none; fill-opacity:0; stroke-width: 3; stroke: #000000" x1="180" y1="230" x2="180" y2="249"/>
    <line style="fill: none; fill-opacity:0; stroke-width: 3; stroke: #000000" x1="286.2" y1="230" x2="286.2" y2="249"/>
    <path style="fill: none; fill-opacity:0; stroke-width: 3; stroke: #000000" d="M 180,249 A 10,10 0 0 0 190,259"/>
    <path style="fill: none; fill-opacity:0; stroke-width: 3; stroke: #000000" d="M 276.2,259 A 10,10 0 0 0 286.2,249"/>
    <text font-size="12.7998" style="fill: #000000;text-anchor:middle;font-family:sans-serif;font-style:normal;font-weight:normal" x="233.1" y="243.4">
      <tspan x="233.1" y="243.4">/transactions</tspan>
    </text>
  </g>
  <text font-size="12.7998" style="fill: #000000;text-anchor:start;font-family:sans-serif;font-style:normal;font-weight:normal" x="-61.725" y="159.5">
    <tspan x="-61.725" y="159.5"></tspan>
  </text>
  <g>
    <line style="fill: none; fill-opacity:0; stroke-width: 3; stroke: #000000" x1="-65.3538" y1="198.514" x2="-64.373" y2="187.969"/>
    <polygon style="fill: #000000" points="-61.3859,188.247 -63.8173,181.995 -67.3601,187.691 "/>
    <polygon style="fill: none; fill-opacity:0; stroke-width: 3; stroke: #000000" points="-61.3859,188.247 -63.8173,181.995 -67.3601,187.691 "/>
  </g>
  <g>
    <line style="fill: none; fill-opacity:0; stroke-width: 3; stroke: #000000" x1="-59.3694" y1="138.51" x2="-55.4882" y2="103.928"/>
    <polygon style="fill: #000000" points="-52.5069,104.262 -54.8191,97.9653 -58.4695,103.593 "/>
    <polygon style="fill: none; fill-opacity:0; stroke-width: 3; stroke: #000000" points="-52.5069,104.262 -54.8191,97.9653 -58.4695,103.593 "/>
  </g>
  <g>
    <line style="fill: none; fill-opacity:0; stroke-width: 3; stroke: #000000" x1="514.646" y1="198.514" x2="515.627" y2="187.969"/>
    <polygon style="fill: #000000" points="518.614,188.247 516.183,181.995 512.64,187.691 "/>
    <polygon style="fill: none; fill-opacity:0; stroke-width: 3; stroke: #000000" points="518.614,188.247 516.183,181.995 512.64,187.691 "/>
  </g>
  <text font-size="12.7998" style="fill: #000000;text-anchor:start;font-family:sans-serif;font-style:normal;font-weight:normal" x="233.1" y="239.5">
    <tspan x="233.1" y="239.5"></tspan>
  </text>
  <g>
    <rect style="fill: #d6d1f5" x="170" y="-110" width="104.15" height="55"/>
    <path style="fill: #d6d1f5" d="M 170,-110 A 10,10 0 0 0 160,-100 L 170,-100 z"/>
    <path style="fill: #d6d1f5" d="M 284.15,-100 A 10,10 0 0 0 274.15,-110 L 274.15,-100 z"/>
    <rect style="fill: #d6d1f5" x="160" y="-100" width="124.15" height="35"/>
    <path style="fill: #d6d1f5" d="M 160,-65 A 10,10 0 0 0 170,-55 L 170,-65 z"/>
    <path style="fill: #d6d1f5" d="M 274.15,-55 A 10,10 0 0 0 284.15,-65 L 274.15,-65 z"/>
    <line style="fill: none; fill-opacity:0; stroke-width: 3; stroke: #000000" x1="170" y1="-110" x2="274.15" y2="-110"/>
    <line style="fill: none; fill-opacity:0; stroke-width: 3; stroke: #000000" x1="170" y1="-55" x2="274.15" y2="-55"/>
    <path style="fill: none; fill-opacity:0; stroke-width: 3; stroke: #000000" d="M 170,-110 A 10,10 0 0 0 160,-100"/>
    <path style="fill: none; fill-opacity:0; stroke-width: 3; stroke: #000000" d="M 284.15,-100 A 10,10 0 0 0 274.15,-110"/>
    <line style="fill: none; fill-opacity:0; stroke-width: 3; stroke: #000000" x1="160" y1="-100" x2="160" y2="-65"/>
    <line style="fill: none; fill-opacity:0; stroke-width: 3; stroke: #000000" x1="284.15" y1="-100" x2="284.15" y2="-65"/>
    <path style="fill: none; fill-opacity:0; stroke-width: 3; stroke: #000000" d="M 160,-65 A 10,10 0 0 0 170,-55"/>
    <path style="fill: none; fill-opacity:0; stroke-width: 3; stroke: #000000" d="M 274.15,-55 A 10,10 0 0 0 284.15,-65"/>
    <text font-size="12.8" style="fill: #000000;text-anchor:middle;font-family:sans-serif;font-style:normal;font-weight:normal" x="222.075" y="-86.6">
      <tspan x="222.075" y="-86.6">/parties</tspan>
      <tspan x="222.075" y="-70.6">type: connector</tspan>
    </text>
  </g>
  <text font-size="12.7998" style="fill: #000000;text-anchor:start;font-family:sans-serif;font-style:normal;font-weight:normal" x="290" y="-40">
    <tspan x="290" y="-40"></tspan>
  </text>
  <g>
    <rect style="fill: #ffe6b4" x="-30" y="-30" width="96.55" height="39"/>
    <path style="fill: #ffe6b4" d="M -30,-30 A 10,10 0 0 0 -40,-20 L -30,-20 z"/>
    <path style="fill: #ffe6b4" d="M 76.55,-20 A 10,10 0 0 0 66.55,-30 L 66.55,-20 z"/>
    <rect style="fill: #ffe6b4" x="-40" y="-20" width="116.55" height="19"/>
    <path style="fill: #ffe6b4" d="M -40,-1 A 10,10 0 0 0 -30,9 L -30,-1 z"/>
    <path style="fill: #ffe6b4" d="M 66.55,9 A 10,10 0 0 0 76.55,-1 L 66.55,-1 z"/>
    <line style="fill: none; fill-opacity:0; stroke-width: 3; stroke: #000000" x1="-30" y1="-30" x2="66.55" y2="-30"/>
    <line style="fill: none; fill-opacity:0; stroke-width: 3; stroke: #000000" x1="-30" y1="9" x2="66.55" y2="9"/>
    <path style="fill: none; fill-opacity:0; stroke-width: 3; stroke: #000000" d="M -30,-30 A 10,10 0 0 0 -40,-20"/>
    <path style="fill: none; fill-opacity:0; stroke-width: 3; stroke: #000000" d="M 76.55,-20 A 10,10 0 0 0 66.55,-30"/>
    <line style="fill: none; fill-opacity:0; stroke-width: 3; stroke: #000000" x1="-40" y1="-20" x2="-40" y2="-1"/>
    <line style="fill: none; fill-opacity:0; stroke-width: 3; stroke: #000000" x1="76.55" y1="-20" x2="76.55" y2="-1"/>
    <path style="fill: none; fill-opacity:0; stroke-width: 3; stroke: #000000" d="M -40,-1 A 10,10 0 0 0 -30,9"/>
    <path style="fill: none; fill-opacity:0; stroke-width: 3; stroke: #000000" d="M 66.55,9 A 10,10 0 0 0 76.55,-1"/>
    <text font-size="12.7998" style="fill: #000000;text-anchor:middle;font-family:sans-serif;font-style:normal;font-weight:normal" x="18.275" y="-6.6">
      <tspan x="18.275" y="-6.6">/partyrelations</tspan>
    </text>
  </g>
  <text font-size="12.7998" style="fill: #000000;text-anchor:start;font-family:sans-serif;font-style:normal;font-weight:normal" x="270" y="20">
    <tspan x="270" y="20"></tspan>
  </text>
  <text font-size="12.7998" style="fill: #000000;text-anchor:start;font-family:sans-serif;font-style:normal;font-weight:normal" x="518.275" y="159.5">
    <tspan x="518.275" y="159.5"></tspan>
  </text>
  <text font-size="12.7998" style="fill: #000000;text-anchor:start;font-family:sans-serif;font-style:normal;font-weight:normal" x="-61.725" y="159.5">
    <tspan x="-61.725" y="159.5"></tspan>
  </text>
  <text font-size="12.7998" style="fill: #000000;text-anchor:start;font-family:sans-serif;font-style:normal;font-weight:normal" x="150" y="250">
    <tspan x="150" y="250"></tspan>
  </text>
  <g>
    <rect style="fill: #d6d1f5" x="450" y="40" width="77.2" height="55"/>
    <path style="fill: #d6d1f5" d="M 450,40 A 10,10 0 0 0 440,50 L 450,50 z"/>
    <path style="fill: #d6d1f5" d="M 537.2,50 A 10,10 0 0 0 527.2,40 L 527.2,50 z"/>
    <rect style="fill: #d6d1f5" x="440" y="50" width="97.2" height="35"/>
    <path style="fill: #d6d1f5" d="M 440,85 A 10,10 0 0 0 450,95 L 450,85 z"/>
    <path style="fill: #d6d1f5" d="M 527.2,95 A 10,10 0 0 0 537.2,85 L 527.2,85 z"/>
    <line style="fill: none; fill-opacity:0; stroke-width: 3; stroke: #000000" x1="450" y1="40" x2="527.2" y2="40"/>
    <line style="fill: none; fill-opacity:0; stroke-width: 3; stroke: #000000" x1="450" y1="95" x2="527.2" y2="95"/>
    <path style="fill: none; fill-opacity:0; stroke-width: 3; stroke: #000000" d="M 450,40 A 10,10 0 0 0 440,50"/>
    <path style="fill: none; fill-opacity:0; stroke-width: 3; stroke: #000000" d="M 537.2,50 A 10,10 0 0 0 527.2,40"/>
    <line style="fill: none; fill-opacity:0; stroke-width: 3; stroke: #000000" x1="440" y1="50" x2="440" y2="85"/>
    <line style="fill: none; fill-opacity:0; stroke-width: 3; stroke: #000000" x1="537.2" y1="50" x2="537.2" y2="85"/>
    <path style="fill: none; fill-opacity:0; stroke-width: 3; stroke: #000000" d="M 440,85 A 10,10 0 0 0 450,95"/>
    <path style="fill: none; fill-opacity:0; stroke-width: 3; stroke: #000000" d="M 527.2,95 A 10,10 0 0 0 537.2,85"/>
    <text font-size="12.8" style="fill: #000000;text-anchor:middle;font-family:sans-serif;font-style:normal;font-weight:normal" x="488.6" y="63.4">
      <tspan x="488.6" y="63.4">/parties</tspan>
      <tspan x="488.6" y="79.4">type: group</tspan>
    </text>
  </g>
  <g>
    <rect style="fill: #ffe6b4" x="360" y="-30" width="96.55" height="39"/>
    <path style="fill: #ffe6b4" d="M 360,-30 A 10,10 0 0 0 350,-20 L 360,-20 z"/>
    <path style="fill: #ffe6b4" d="M 466.55,-20 A 10,10 0 0 0 456.55,-30 L 456.55,-20 z"/>
    <rect style="fill: #ffe6b4" x="350" y="-20" width="116.55" height="19"/>
    <path style="fill: #ffe6b4" d="M 350,-1 A 10,10 0 0 0 360,9 L 360,-1 z"/>
    <path style="fill: #ffe6b4" d="M 456.55,9 A 10,10 0 0 0 466.55,-1 L 456.55,-1 z"/>
    <line style="fill: none; fill-opacity:0; stroke-width: 3; stroke: #000000" x1="360" y1="-30" x2="456.55" y2="-30"/>
    <line style="fill: none; fill-opacity:0; stroke-width: 3; stroke: #000000" x1="360" y1="9" x2="456.55" y2="9"/>
    <path style="fill: none; fill-opacity:0; stroke-width: 3; stroke: #000000" d="M 360,-30 A 10,10 0 0 0 350,-20"/>
    <path style="fill: none; fill-opacity:0; stroke-width: 3; stroke: #000000" d="M 466.55,-20 A 10,10 0 0 0 456.55,-30"/>
    <line style="fill: none; fill-opacity:0; stroke-width: 3; stroke: #000000" x1="350" y1="-20" x2="350" y2="-1"/>
    <line style="fill: none; fill-opacity:0; stroke-width: 3; stroke: #000000" x1="466.55" y1="-20" x2="466.55" y2="-1"/>
    <path style="fill: none; fill-opacity:0; stroke-width: 3; stroke: #000000" d="M 350,-1 A 10,10 0 0 0 360,9"/>
    <path style="fill: none; fill-opacity:0; stroke-width: 3; stroke: #000000" d="M 456.55,9 A 10,10 0 0 0 466.55,-1"/>
    <text font-size="12.7998" style="fill: #000000;text-anchor:middle;font-family:sans-serif;font-style:normal;font-weight:normal" x="408.275" y="-6.6">
      <tspan x="408.275" y="-6.6">/partyrelations</tspan>
    </text>
  </g>
  <g>
    <line style="fill: none; fill-opacity:0; stroke-width: 3; stroke: #000000" x1="511.505" y1="138.51" x2="500.248" y2="103.612"/>
    <polygon style="fill: #000000" points="503.103,102.692 498.406,97.9022 497.393,104.533 "/>
    <polygon style="fill: none; fill-opacity:0; stroke-width: 3; stroke: #000000" points="503.103,102.692 498.406,97.9022 497.393,104.533 "/>
  </g>
  <text font-size="12.7998" style="fill: #000000;text-anchor:start;font-family:sans-serif;font-style:normal;font-weight:normal" x="408.275" y="-10.5">
    <tspan x="408.275" y="-10.5"></tspan>
  </text>
  <g>
    <line style="fill: none; fill-opacity:0; stroke-width: 3; stroke: #000000" x1="-33.942" y1="38.5188" x2="-20.9242" y2="16.9085"/>
    <polygon style="fill: #000000" points="-18.3544,18.4565 -17.8282,11.769 -23.494,15.3605 "/>
    <polygon style="fill: none; fill-opacity:0; stroke-width: 3; stroke: #000000" points="-18.3544,18.4565 -17.8282,11.769 -23.494,15.3605 "/>
  </g>
  <g>
    <line style="fill: none; fill-opacity:0; stroke-width: 3; stroke: #000000" x1="77.7084" y1="-31.4971" x2="151.465" y2="-57.5544"/>
    <polygon style="fill: #000000" points="152.464,-54.7257 157.122,-59.5531 150.466,-60.3831 "/>
    <polygon style="fill: none; fill-opacity:0; stroke-width: 3; stroke: #000000" points="152.464,-54.7257 157.122,-59.5531 150.466,-60.3831 "/>
  </g>
  <g>
    <line style="fill: none; fill-opacity:0; stroke-width: 3; stroke: #000000" x1="353.974" y1="-31.4971" x2="292.65" y2="-55.2099"/>
    <polygon style="fill: #000000" points="293.732,-58.008 287.054,-57.3738 291.568,-52.4118 "/>
    <polygon style="fill: none; fill-opacity:0; stroke-width: 3; stroke: #000000" points="293.732,-58.008 287.054,-57.3738 291.568,-52.4118 "/>
  </g>
  <g>
    <rect style="fill: #ffc0cb" x="70" y="40" width="134.95" height="39"/>
    <path style="fill: #ffc0cb" d="M 70,40 A 10,10 0 0 0 60,50 L 70,50 z"/>
    <path style="fill: #ffc0cb" d="M 214.95,50 A 10,10 0 0 0 204.95,40 L 204.95,50 z"/>
    <rect style="fill: #ffc0cb" x="60" y="50" width="154.95" height="19"/>
    <path style="fill: #ffc0cb" d="M 60,69 A 10,10 0 0 0 70,79 L 70,69 z"/>
    <path style="fill: #ffc0cb" d="M 204.95,79 A 10,10 0 0 0 214.95,69 L 204.95,69 z"/>
    <line style="fill: none; fill-opacity:0; stroke-width: 3; stroke: #000000" x1="70" y1="40" x2="204.95" y2="40"/>
    <line style="fill: none; fill-opacity:0; stroke-width: 3; stroke: #000000" x1="70" y1="79" x2="204.95" y2="79"/>
    <path style="fill: none; fill-opacity:0; stroke-width: 3; stroke: #000000" d="M 70,40 A 10,10 0 0 0 60,50"/>
    <path style="fill: none; fill-opacity:0; stroke-width: 3; stroke: #000000" d="M 214.95,50 A 10,10 0 0 0 204.95,40"/>
    <line style="fill: none; fill-opacity:0; stroke-width: 3; stroke: #000000" x1="60" y1="50" x2="60" y2="69"/>
    <line style="fill: none; fill-opacity:0; stroke-width: 3; stroke: #000000" x1="214.95" y1="50" x2="214.95" y2="69"/>
    <path style="fill: none; fill-opacity:0; stroke-width: 3; stroke: #000000" d="M 60,69 A 10,10 0 0 0 70,79"/>
    <path style="fill: none; fill-opacity:0; stroke-width: 3; stroke: #000000" d="M 204.95,79 A 10,10 0 0 0 214.95,69"/>
    <text font-size="12.7998" style="fill: #000000;text-anchor:middle;font-family:sans-serif;font-style:normal;font-weight:normal" x="137.475" y="63.4">
      <tspan x="137.475" y="63.4">/transactionrelations</tspan>
    </text>
  </g>
  <g>
    <line style="fill: none; fill-opacity:0; stroke-width: 3; stroke: #000000" x1="458.743" y1="38.5071" x2="435.276" y2="15.7197"/>
    <polygon style="fill: #000000" points="437.366,13.5675 430.972,11.5398 433.186,17.872 "/>
    <polygon style="fill: none; fill-opacity:0; stroke-width: 3; stroke: #000000" points="437.366,13.5675 430.972,11.5398 433.186,17.872 "/>
  </g>
  <g>
    <rect style="fill: #ffc0cb" x="250" y="40" width="134.95" height="39"/>
    <path style="fill: #ffc0cb" d="M 250,40 A 10,10 0 0 0 240,50 L 250,50 z"/>
    <path style="fill: #ffc0cb" d="M 394.95,50 A 10,10 0 0 0 384.95,40 L 384.95,50 z"/>
    <rect style="fill: #ffc0cb" x="240" y="50" width="154.95" height="19"/>
    <path style="fill: #ffc0cb" d="M 240,69 A 10,10 0 0 0 250,79 L 250,69 z"/>
    <path style="fill: #ffc0cb" d="M 384.95,79 A 10,10 0 0 0 394.95,69 L 384.95,69 z"/>
    <line style="fill: none; fill-opacity:0; stroke-width: 3; stroke: #000000" x1="250" y1="40" x2="384.95" y2="40"/>
    <line style="fill: none; fill-opacity:0; stroke-width: 3; stroke: #000000" x1="250" y1="79" x2="384.95" y2="79"/>
    <path style="fill: none; fill-opacity:0; stroke-width: 3; stroke: #000000" d="M 250,40 A 10,10 0 0 0 240,50"/>
    <path style="fill: none; fill-opacity:0; stroke-width: 3; stroke: #000000" d="M 394.95,50 A 10,10 0 0 0 384.95,40"/>
    <line style="fill: none; fill-opacity:0; stroke-width: 3; stroke: #000000" x1="240" y1="50" x2="240" y2="69"/>
    <line style="fill: none; fill-opacity:0; stroke-width: 3; stroke: #000000" x1="394.95" y1="50" x2="394.95" y2="69"/>
    <path style="fill: none; fill-opacity:0; stroke-width: 3; stroke: #000000" d="M 240,69 A 10,10 0 0 0 250,79"/>
    <path style="fill: none; fill-opacity:0; stroke-width: 3; stroke: #000000" d="M 384.95,79 A 10,10 0 0 0 394.95,69"/>
    <text font-size="12.7998" style="fill: #000000;text-anchor:middle;font-family:sans-serif;font-style:normal;font-weight:normal" x="317.475" y="63.4">
      <tspan x="317.475" y="63.4">/transactionrelations</tspan>
    </text>
  </g>
  <g>
    <rect style="fill: #ffc0cb" x="30" y="160" width="134.95" height="39"/>
    <path style="fill: #ffc0cb" d="M 30,160 A 10,10 0 0 0 20,170 L 30,170 z"/>
    <path style="fill: #ffc0cb" d="M 174.95,170 A 10,10 0 0 0 164.95,160 L 164.95,170 z"/>
    <rect style="fill: #ffc0cb" x="20" y="170" width="154.95" height="19"/>
    <path style="fill: #ffc0cb" d="M 20,189 A 10,10 0 0 0 30,199 L 30,189 z"/>
    <path style="fill: #ffc0cb" d="M 164.95,199 A 10,10 0 0 0 174.95,189 L 164.95,189 z"/>
    <line style="fill: none; fill-opacity:0; stroke-width: 3; stroke: #000000" x1="30" y1="160" x2="164.95" y2="160"/>
    <line style="fill: none; fill-opacity:0; stroke-width: 3; stroke: #000000" x1="30" y1="199" x2="164.95" y2="199"/>
    <path style="fill: none; fill-opacity:0; stroke-width: 3; stroke: #000000" d="M 30,160 A 10,10 0 0 0 20,170"/>
    <path style="fill: none; fill-opacity:0; stroke-width: 3; stroke: #000000" d="M 174.95,170 A 10,10 0 0 0 164.95,160"/>
    <line style="fill: none; fill-opacity:0; stroke-width: 3; stroke: #000000" x1="20" y1="170" x2="20" y2="189"/>
    <line style="fill: none; fill-opacity:0; stroke-width: 3; stroke: #000000" x1="174.95" y1="170" x2="174.95" y2="189"/>
    <path style="fill: none; fill-opacity:0; stroke-width: 3; stroke: #000000" d="M 20,189 A 10,10 0 0 0 30,199"/>
    <path style="fill: none; fill-opacity:0; stroke-width: 3; stroke: #000000" d="M 164.95,199 A 10,10 0 0 0 174.95,189"/>
    <text font-size="12.7998" style="fill: #000000;text-anchor:middle;font-family:sans-serif;font-style:normal;font-weight:normal" x="97.475" y="183.4">
      <tspan x="97.475" y="183.4">/transactionrelations</tspan>
    </text>
  </g>
  <g>
    <rect style="fill: #ffc0cb" x="290" y="160" width="134.95" height="39"/>
    <path style="fill: #ffc0cb" d="M 290,160 A 10,10 0 0 0 280,170 L 290,170 z"/>
    <path style="fill: #ffc0cb" d="M 434.95,170 A 10,10 0 0 0 424.95,160 L 424.95,170 z"/>
    <rect style="fill: #ffc0cb" x="280" y="170" width="154.95" height="19"/>
    <path style="fill: #ffc0cb" d="M 280,189 A 10,10 0 0 0 290,199 L 290,189 z"/>
    <path style="fill: #ffc0cb" d="M 424.95,199 A 10,10 0 0 0 434.95,189 L 424.95,189 z"/>
    <line style="fill: none; fill-opacity:0; stroke-width: 3; stroke: #000000" x1="290" y1="160" x2="424.95" y2="160"/>
    <line style="fill: none; fill-opacity:0; stroke-width: 3; stroke: #000000" x1="290" y1="199" x2="424.95" y2="199"/>
    <path style="fill: none; fill-opacity:0; stroke-width: 3; stroke: #000000" d="M 290,160 A 10,10 0 0 0 280,170"/>
    <path style="fill: none; fill-opacity:0; stroke-width: 3; stroke: #000000" d="M 434.95,170 A 10,10 0 0 0 424.95,160"/>
    <line style="fill: none; fill-opacity:0; stroke-width: 3; stroke: #000000" x1="280" y1="170" x2="280" y2="189"/>
    <line style="fill: none; fill-opacity:0; stroke-width: 3; stroke: #000000" x1="434.95" y1="170" x2="434.95" y2="189"/>
    <path style="fill: none; fill-opacity:0; stroke-width: 3; stroke: #000000" d="M 280,189 A 10,10 0 0 0 290,199"/>
    <path style="fill: none; fill-opacity:0; stroke-width: 3; stroke: #000000" d="M 424.95,199 A 10,10 0 0 0 434.95,189"/>
    <text font-size="12.7998" style="fill: #000000;text-anchor:middle;font-family:sans-serif;font-style:normal;font-weight:normal" x="357.475" y="183.4">
      <tspan x="357.475" y="183.4">/transactionrelations</tspan>
    </text>
  </g>
  <text font-size="12.7998" style="fill: #000000;text-anchor:start;font-family:sans-serif;font-style:normal;font-weight:normal" x="518.275" y="159.5">
    <tspan x="518.275" y="159.5">t</tspan>
  </text>
  <g>
    <line style="fill: none; fill-opacity:0; stroke-width: 3; stroke: #000000" x1="18.8078" y1="169.617" x2="5.45537" y2="167.94"/>
    <polygon style="fill: #000000" points="5.82932,164.963 -0.497831,167.192 5.08143,170.916 "/>
    <polygon style="fill: none; fill-opacity:0; stroke-width: 3; stroke: #000000" points="5.82932,164.963 -0.497831,167.192 5.08143,170.916 "/>
  </g>
  <g>
    <line style="fill: none; fill-opacity:0; stroke-width: 3; stroke: #000000" x1="101.724" y1="38.5051" x2="60.4936" y2="14.2928"/>
    <polygon style="fill: #000000" points="62.0127,11.7059 55.3197,11.2545 58.9744,16.8797 "/>
    <polygon style="fill: none; fill-opacity:0; stroke-width: 3; stroke: #000000" points="62.0127,11.7059 55.3197,11.2545 58.9744,16.8797 "/>
  </g>
  <g>
    <line style="fill: none; fill-opacity:0; stroke-width: 3; stroke: #000000" x1="344.708" y1="38.5051" x2="375.102" y2="15.074"/>
    <polygon style="fill: #000000" points="376.933,17.4499 379.854,11.4107 373.27,12.6981 "/>
    <polygon style="fill: none; fill-opacity:0; stroke-width: 3; stroke: #000000" points="376.933,17.4499 379.854,11.4107 373.27,12.6981 "/>
  </g>
  <g>
    <line style="fill: none; fill-opacity:0; stroke-width: 3; stroke: #000000" x1="436.383" y1="169.686" x2="451.062" y2="167.86"/>
    <polygon style="fill: #000000" points="451.433,170.837 457.016,167.119 450.692,164.883 "/>
    <polygon style="fill: none; fill-opacity:0; stroke-width: 3; stroke: #000000" points="451.433,170.837 457.016,167.119 450.692,164.883 "/>
  </g>
  <g>
    <line style="fill: none; fill-opacity:0; stroke-width: 3; stroke: #000000" x1="144.924" y1="200.491" x2="178.792" y2="215.474"/>
    <polygon style="fill: #000000" points="177.579,218.218 184.279,217.902 180.006,212.731 "/>
    <polygon style="fill: none; fill-opacity:0; stroke-width: 3; stroke: #000000" points="177.579,218.218 184.279,217.902 180.006,212.731 "/>
  </g>
  <g>
    <line style="fill: none; fill-opacity:0; stroke-width: 3; stroke: #000000" x1="148.611" y1="80.4619" x2="218.445" y2="211.915"/>
    <polygon style="fill: #000000" points="215.796,213.322 221.26,217.213 221.095,210.507 "/>
    <polygon style="fill: none; fill-opacity:0; stroke-width: 3; stroke: #000000" points="215.796,213.322 221.26,217.213 221.095,210.507 "/>
  </g>
  <g>
    <line style="fill: none; fill-opacity:0; stroke-width: 3; stroke: #000000" x1="307.649" y1="80.4619" x2="246.109" y2="211.747"/>
    <polygon style="fill: #000000" points="243.393,210.474 243.563,217.18 248.826,213.02 "/>
    <polygon style="fill: none; fill-opacity:0; stroke-width: 3; stroke: #000000" points="243.393,210.474 243.563,217.18 248.826,213.02 "/>
  </g>
  <g>
    <line style="fill: none; fill-opacity:0; stroke-width: 3; stroke: #000000" x1="313.962" y1="200.491" x2="283.368" y2="215.25"/>
    <polygon style="fill: #000000" points="282.065,212.548 277.964,217.857 284.672,217.952 "/>
    <polygon style="fill: none; fill-opacity:0; stroke-width: 3; stroke: #000000" points="282.065,212.548 277.964,217.857 284.672,217.952 "/>
  </g>
  <g>
    <line style="fill: none; fill-opacity:0; stroke-width: 3; stroke: #000000" x1="-14.6356" y1="229.628" x2="171.006" y2="237.026"/>
    <polygon style="fill: #000000" points="170.887,240.023 177.001,237.265 171.125,234.028 "/>
    <polygon style="fill: none; fill-opacity:0; stroke-width: 3; stroke: #000000" points="170.887,240.023 177.001,237.265 171.125,234.028 "/>
  </g>
  <g>
    <line style="fill: none; fill-opacity:0; stroke-width: 3; stroke: #000000" x1="287.708" y1="237.15" x2="451.007" y2="230.123"/>
    <polygon style="fill: #000000" points="451.136,233.12 457.001,229.865 450.878,227.125 "/>
    <polygon style="fill: none; fill-opacity:0; stroke-width: 3; stroke: #000000" points="451.136,233.12 457.001,229.865 450.878,227.125 "/>
  </g>
</svg>
