<?xml version="1.0" encoding="UTF-8" standalone="no"?>
<!DOCTYPE svg PUBLIC "-//W3C//DTD SVG 1.0//EN" "http://www.w3.org/TR/2001/PR-SVG-20010719/DTD/svg10.dtd">
<svg width="20cm" height="11cm" viewBox="14 38 394 219" xmlns="http://www.w3.org/2000/svg" xmlns:xlink="http://www.w3.org/1999/xlink">
  <g>
    <rect style="fill: #d6d1f5" x="34" y="200" width="83.9" height="55"/>
    <path style="fill: #d6d1f5" d="M 34,200 A 10,10 0 0 0 24,210 L 34,210 z"/>
    <path style="fill: #d6d1f5" d="M 127.9,210 A 10,10 0 0 0 117.9,200 L 117.9,210 z"/>
    <rect style="fill: #d6d1f5" x="24" y="210" width="103.9" height="35"/>
    <path style="fill: #d6d1f5" d="M 24,245 A 10,10 0 0 0 34,255 L 34,245 z"/>
    <path style="fill: #d6d1f5" d="M 117.9,255 A 10,10 0 0 0 127.9,245 L 117.9,245 z"/>
    <line style="fill: none; fill-opacity:0; stroke-width: 3; stroke: #000000" x1="34" y1="200" x2="117.9" y2="200"/>
    <line style="fill: none; fill-opacity:0; stroke-width: 3; stroke: #000000" x1="34" y1="255" x2="117.9" y2="255"/>
    <path style="fill: none; fill-opacity:0; stroke-width: 3; stroke: #000000" d="M 34,200 A 10,10 0 0 0 24,210"/>
    <path style="fill: none; fill-opacity:0; stroke-width: 3; stroke: #000000" d="M 127.9,210 A 10,10 0 0 0 117.9,200"/>
    <line style="fill: none; fill-opacity:0; stroke-width: 3; stroke: #000000" x1="24" y1="210" x2="24" y2="245"/>
    <line style="fill: none; fill-opacity:0; stroke-width: 3; stroke: #000000" x1="127.9" y1="210" x2="127.9" y2="245"/>
    <path style="fill: none; fill-opacity:0; stroke-width: 3; stroke: #000000" d="M 24,245 A 10,10 0 0 0 34,255"/>
    <path style="fill: none; fill-opacity:0; stroke-width: 3; stroke: #000000" d="M 117.9,255 A 10,10 0 0 0 127.9,245"/>
    <text font-size="12.8" style="fill: #000000;text-anchor:middle;font-family:sans-serif;font-style:normal;font-weight:normal" x="75.95" y="223.4">
      <tspan x="75.95" y="223.4">/parties</tspan>
      <tspan x="75.95" y="239.4">type: person</tspan>
    </text>
  </g>
  <g>
    <rect style="fill: #d6d1f5" x="170" y="40" width="77.2" height="55"/>
    <path style="fill: #d6d1f5" d="M 170,40 A 10,10 0 0 0 160,50 L 170,50 z"/>
    <path style="fill: #d6d1f5" d="M 257.2,50 A 10,10 0 0 0 247.2,40 L 247.2,50 z"/>
    <rect style="fill: #d6d1f5" x="160" y="50" width="97.2" height="35"/>
    <path style="fill: #d6d1f5" d="M 160,85 A 10,10 0 0 0 170,95 L 170,85 z"/>
    <path style="fill: #d6d1f5" d="M 247.2,95 A 10,10 0 0 0 257.2,85 L 247.2,85 z"/>
    <line style="fill: none; fill-opacity:0; stroke-width: 3; stroke: #000000" x1="170" y1="40" x2="247.2" y2="40"/>
    <line style="fill: none; fill-opacity:0; stroke-width: 3; stroke: #000000" x1="170" y1="95" x2="247.2" y2="95"/>
    <path style="fill: none; fill-opacity:0; stroke-width: 3; stroke: #000000" d="M 170,40 A 10,10 0 0 0 160,50"/>
    <path style="fill: none; fill-opacity:0; stroke-width: 3; stroke: #000000" d="M 257.2,50 A 10,10 0 0 0 247.2,40"/>
    <line style="fill: none; fill-opacity:0; stroke-width: 3; stroke: #000000" x1="160" y1="50" x2="160" y2="85"/>
    <line style="fill: none; fill-opacity:0; stroke-width: 3; stroke: #000000" x1="257.2" y1="50" x2="257.2" y2="85"/>
    <path style="fill: none; fill-opacity:0; stroke-width: 3; stroke: #000000" d="M 160,85 A 10,10 0 0 0 170,95"/>
    <path style="fill: none; fill-opacity:0; stroke-width: 3; stroke: #000000" d="M 247.2,95 A 10,10 0 0 0 257.2,85"/>
    <text font-size="12.8" style="fill: #000000;text-anchor:middle;font-family:sans-serif;font-style:normal;font-weight:normal" x="208.6" y="63.4">
      <tspan x="208.6" y="63.4">/parties</tspan>
      <tspan x="208.6" y="79.4">type: group</tspan>
    </text>
  </g>
  <text font-size="12.8" style="fill: #000000;text-anchor:start;font-family:sans-serif;font-style:normal;font-weight:normal" x="75.95" y="227.5">
    <tspan x="75.95" y="227.5"></tspan>
  </text>
  <text font-size="12.8" style="fill: #000000;text-anchor:start;font-family:sans-serif;font-style:normal;font-weight:normal" x="75.95" y="227.5">
    <tspan x="75.95" y="227.5"></tspan>
  </text>
  <g>
    <rect style="fill: #d6d1f5" x="170" y="200" width="83.9" height="55"/>
    <path style="fill: #d6d1f5" d="M 170,200 A 10,10 0 0 0 160,210 L 170,210 z"/>
    <path style="fill: #d6d1f5" d="M 263.9,210 A 10,10 0 0 0 253.9,200 L 253.9,210 z"/>
    <rect style="fill: #d6d1f5" x="160" y="210" width="103.9" height="35"/>
    <path style="fill: #d6d1f5" d="M 160,245 A 10,10 0 0 0 170,255 L 170,245 z"/>
    <path style="fill: #d6d1f5" d="M 253.9,255 A 10,10 0 0 0 263.9,245 L 253.9,245 z"/>
    <line style="fill: none; fill-opacity:0; stroke-width: 3; stroke: #000000" x1="170" y1="200" x2="253.9" y2="200"/>
    <line style="fill: none; fill-opacity:0; stroke-width: 3; stroke: #000000" x1="170" y1="255" x2="253.9" y2="255"/>
    <path style="fill: none; fill-opacity:0; stroke-width: 3; stroke: #000000" d="M 170,200 A 10,10 0 0 0 160,210"/>
    <path style="fill: none; fill-opacity:0; stroke-width: 3; stroke: #000000" d="M 263.9,210 A 10,10 0 0 0 253.9,200"/>
    <line style="fill: none; fill-opacity:0; stroke-width: 3; stroke: #000000" x1="160" y1="210" x2="160" y2="245"/>
    <line style="fill: none; fill-opacity:0; stroke-width: 3; stroke: #000000" x1="263.9" y1="210" x2="263.9" y2="245"/>
    <path style="fill: none; fill-opacity:0; stroke-width: 3; stroke: #000000" d="M 160,245 A 10,10 0 0 0 170,255"/>
    <path style="fill: none; fill-opacity:0; stroke-width: 3; stroke: #000000" d="M 253.9,255 A 10,10 0 0 0 263.9,245"/>
    <text font-size="12.8" style="fill: #000000;text-anchor:middle;font-family:sans-serif;font-style:normal;font-weight:normal" x="211.95" y="223.4">
      <tspan x="211.95" y="223.4">/parties</tspan>
      <tspan x="211.95" y="239.4">type: person</tspan>
    </text>
  </g>
  <text font-size="12.8" style="fill: #000000;text-anchor:start;font-family:sans-serif;font-style:normal;font-weight:normal" x="211.95" y="227.5">
    <tspan x="211.95" y="227.5"></tspan>
  </text>
  <text font-size="12.8" style="fill: #000000;text-anchor:start;font-family:sans-serif;font-style:normal;font-weight:normal" x="150" y="70">
    <tspan x="150" y="70"></tspan>
  </text>
  <text font-size="12.8" style="fill: #000000;text-anchor:start;font-family:sans-serif;font-style:normal;font-weight:normal" x="262.076" y="-52.5">
    <tspan x="262.076" y="-52.5"></tspan>
  </text>
  <text font-size="12.8" style="fill: #000000;text-anchor:start;font-family:sans-serif;font-style:normal;font-weight:normal" x="262.076" y="-52.5">
    <tspan x="262.076" y="-52.5"></tspan>
  </text>
  <text font-size="12.8" style="fill: #000000;text-anchor:start;font-family:sans-serif;font-style:normal;font-weight:normal" x="262.076" y="-52.5">
    <tspan x="262.076" y="-52.5"></tspan>
  </text>
  <text font-size="12.8" style="fill: #000000;text-anchor:start;font-family:sans-serif;font-style:normal;font-weight:normal" x="262.076" y="-52.5">
    <tspan x="262.076" y="-52.5"></tspan>
  </text>
  <g>
    <rect style="fill: #ffe6b4" x="26" y="140" width="96.55" height="39"/>
    <path style="fill: #ffe6b4" d="M 26,140 A 10,10 0 0 0 16,150 L 26,150 z"/>
    <path style="fill: #ffe6b4" d="M 132.55,150 A 10,10 0 0 0 122.55,140 L 122.55,150 z"/>
    <rect style="fill: #ffe6b4" x="16" y="150" width="116.55" height="19"/>
    <path style="fill: #ffe6b4" d="M 16,169 A 10,10 0 0 0 26,179 L 26,169 z"/>
    <path style="fill: #ffe6b4" d="M 122.55,179 A 10,10 0 0 0 132.55,169 L 122.55,169 z"/>
    <line style="fill: none; fill-opacity:0; stroke-width: 3; stroke: #000000" x1="26" y1="140" x2="122.55" y2="140"/>
    <line style="fill: none; fill-opacity:0; stroke-width: 3; stroke: #000000" x1="26" y1="179" x2="122.55" y2="179"/>
    <path style="fill: none; fill-opacity:0; stroke-width: 3; stroke: #000000" d="M 26,140 A 10,10 0 0 0 16,150"/>
    <path style="fill: none; fill-opacity:0; stroke-width: 3; stroke: #000000" d="M 132.55,150 A 10,10 0 0 0 122.55,140"/>
    <line style="fill: none; fill-opacity:0; stroke-width: 3; stroke: #000000" x1="16" y1="150" x2="16" y2="169"/>
    <line style="fill: none; fill-opacity:0; stroke-width: 3; stroke: #000000" x1="132.55" y1="150" x2="132.55" y2="169"/>
    <path style="fill: none; fill-opacity:0; stroke-width: 3; stroke: #000000" d="M 16,169 A 10,10 0 0 0 26,179"/>
    <path style="fill: none; fill-opacity:0; stroke-width: 3; stroke: #000000" d="M 122.55,179 A 10,10 0 0 0 132.55,169"/>
    <text font-size="12.8" style="fill: #000000;text-anchor:middle;font-family:sans-serif;font-style:normal;font-weight:normal" x="74.275" y="163.4">
      <tspan x="74.275" y="163.4">/partyrelations</tspan>
    </text>
  </g>
  <text font-size="12.8" style="fill: #000000;text-anchor:start;font-family:sans-serif;font-style:normal;font-weight:normal" x="74.275" y="159.5">
    <tspan x="74.275" y="159.5"></tspan>
  </text>
  <text font-size="12.8" style="fill: #000000;text-anchor:start;font-family:sans-serif;font-style:normal;font-weight:normal" x="74.275" y="159.5">
    <tspan x="74.275" y="159.5"></tspan>
  </text>
  <g>
    <rect style="fill: #ffe6b4" x="162" y="140" width="96.55" height="39"/>
    <path style="fill: #ffe6b4" d="M 162,140 A 10,10 0 0 0 152,150 L 162,150 z"/>
    <path style="fill: #ffe6b4" d="M 268.55,150 A 10,10 0 0 0 258.55,140 L 258.55,150 z"/>
    <rect style="fill: #ffe6b4" x="152" y="150" width="116.55" height="19"/>
    <path style="fill: #ffe6b4" d="M 152,169 A 10,10 0 0 0 162,179 L 162,169 z"/>
    <path style="fill: #ffe6b4" d="M 258.55,179 A 10,10 0 0 0 268.55,169 L 258.55,169 z"/>
    <line style="fill: none; fill-opacity:0; stroke-width: 3; stroke: #000000" x1="162" y1="140" x2="258.55" y2="140"/>
    <line style="fill: none; fill-opacity:0; stroke-width: 3; stroke: #000000" x1="162" y1="179" x2="258.55" y2="179"/>
    <path style="fill: none; fill-opacity:0; stroke-width: 3; stroke: #000000" d="M 162,140 A 10,10 0 0 0 152,150"/>
    <path style="fill: none; fill-opacity:0; stroke-width: 3; stroke: #000000" d="M 268.55,150 A 10,10 0 0 0 258.55,140"/>
    <line style="fill: none; fill-opacity:0; stroke-width: 3; stroke: #000000" x1="152" y1="150" x2="152" y2="169"/>
    <line style="fill: none; fill-opacity:0; stroke-width: 3; stroke: #000000" x1="268.55" y1="150" x2="268.55" y2="169"/>
    <path style="fill: none; fill-opacity:0; stroke-width: 3; stroke: #000000" d="M 152,169 A 10,10 0 0 0 162,179"/>
    <path style="fill: none; fill-opacity:0; stroke-width: 3; stroke: #000000" d="M 258.55,179 A 10,10 0 0 0 268.55,169"/>
    <text font-size="12.8" style="fill: #000000;text-anchor:middle;font-family:sans-serif;font-style:normal;font-weight:normal" x="210.275" y="163.4">
      <tspan x="210.275" y="163.4">/partyrelations</tspan>
    </text>
  </g>
  <text font-size="12.8" style="fill: #000000;text-anchor:start;font-family:sans-serif;font-style:normal;font-weight:normal" x="74.275" y="159.5">
    <tspan x="74.275" y="159.5"></tspan>
  </text>
  <g>
    <line style="fill: none; fill-opacity:0; stroke-width: 3; stroke: #000000" x1="75.236" y1="198.514" x2="74.977" y2="187.999"/>
    <polygon style="fill: #000000" points="77.9761,187.925 74.8292,182.001 71.9779,188.073 "/>
    <polygon style="fill: none; fill-opacity:0; stroke-width: 3; stroke: #000000" points="77.9761,187.925 74.8292,182.001 71.9779,188.073 "/>
  </g>
  <g>
    <line style="fill: none; fill-opacity:0; stroke-width: 3; stroke: #000000" x1="211.236" y1="198.514" x2="210.977" y2="187.999"/>
    <polygon style="fill: #000000" points="213.976,187.925 210.829,182.001 207.978,188.073 "/>
    <polygon style="fill: none; fill-opacity:0; stroke-width: 3; stroke: #000000" points="213.976,187.925 210.829,182.001 207.978,188.073 "/>
  </g>
  <g>
    <line style="fill: none; fill-opacity:0; stroke-width: 3; stroke: #000000" x1="104.921" y1="138.51" x2="160.108" y2="100.713"/>
    <polygon style="fill: #000000" points="161.803,103.188 165.058,97.3222 158.412,98.2376 "/>
    <polygon style="fill: none; fill-opacity:0; stroke-width: 3; stroke: #000000" points="161.803,103.188 165.058,97.3222 158.412,98.2376 "/>
  </g>
  <g>
    <line style="fill: none; fill-opacity:0; stroke-width: 3; stroke: #000000" x1="209.893" y1="138.51" x2="209.264" y2="103.973"/>
    <polygon style="fill: #000000" points="212.264,103.919 209.155,97.9744 206.265,104.028 "/>
    <polygon style="fill: none; fill-opacity:0; stroke-width: 3; stroke: #000000" points="212.264,103.919 209.155,97.9744 206.265,104.028 "/>
  </g>
  <g>
    <rect style="fill: #d6d1f5" x="308" y="200" width="83.9" height="55"/>
    <path style="fill: #d6d1f5" d="M 308,200 A 10,10 0 0 0 298,210 L 308,210 z"/>
    <path style="fill: #d6d1f5" d="M 401.9,210 A 10,10 0 0 0 391.9,200 L 391.9,210 z"/>
    <rect style="fill: #d6d1f5" x="298" y="210" width="103.9" height="35"/>
    <path style="fill: #d6d1f5" d="M 298,245 A 10,10 0 0 0 308,255 L 308,245 z"/>
    <path style="fill: #d6d1f5" d="M 391.9,255 A 10,10 0 0 0 401.9,245 L 391.9,245 z"/>
    <line style="fill: none; fill-opacity:0; stroke-width: 3; stroke: #000000" x1="308" y1="200" x2="391.9" y2="200"/>
    <line style="fill: none; fill-opacity:0; stroke-width: 3; stroke: #000000" x1="308" y1="255" x2="391.9" y2="255"/>
    <path style="fill: none; fill-opacity:0; stroke-width: 3; stroke: #000000" d="M 308,200 A 10,10 0 0 0 298,210"/>
    <path style="fill: none; fill-opacity:0; stroke-width: 3; stroke: #000000" d="M 401.9,210 A 10,10 0 0 0 391.9,200"/>
    <line style="fill: none; fill-opacity:0; stroke-width: 3; stroke: #000000" x1="298" y1="210" x2="298" y2="245"/>
    <line style="fill: none; fill-opacity:0; stroke-width: 3; stroke: #000000" x1="401.9" y1="210" x2="401.9" y2="245"/>
    <path style="fill: none; fill-opacity:0; stroke-width: 3; stroke: #000000" d="M 298,245 A 10,10 0 0 0 308,255"/>
    <path style="fill: none; fill-opacity:0; stroke-width: 3; stroke: #000000" d="M 391.9,255 A 10,10 0 0 0 401.9,245"/>
    <text font-size="12.8" style="fill: #000000;text-anchor:middle;font-family:sans-serif;font-style:normal;font-weight:normal" x="349.95" y="223.4">
      <tspan x="349.95" y="223.4">/parties</tspan>
      <tspan x="349.95" y="239.4">type: person</tspan>
    </text>
  </g>
  <text font-size="12.8" style="fill: #000000;text-anchor:start;font-family:sans-serif;font-style:normal;font-weight:normal" x="349.95" y="227.5">
    <tspan x="349.95" y="227.5"></tspan>
  </text>
  <g>
    <rect style="fill: #ffe6b4" x="300" y="140" width="96.55" height="39"/>
    <path style="fill: #ffe6b4" d="M 300,140 A 10,10 0 0 0 290,150 L 300,150 z"/>
    <path style="fill: #ffe6b4" d="M 406.55,150 A 10,10 0 0 0 396.55,140 L 396.55,150 z"/>
    <rect style="fill: #ffe6b4" x="290" y="150" width="116.55" height="19"/>
    <path style="fill: #ffe6b4" d="M 290,169 A 10,10 0 0 0 300,179 L 300,169 z"/>
    <path style="fill: #ffe6b4" d="M 396.55,179 A 10,10 0 0 0 406.55,169 L 396.55,169 z"/>
    <line style="fill: none; fill-opacity:0; stroke-width: 3; stroke: #000000" x1="300" y1="140" x2="396.55" y2="140"/>
    <line style="fill: none; fill-opacity:0; stroke-width: 3; stroke: #000000" x1="300" y1="179" x2="396.55" y2="179"/>
    <path style="fill: none; fill-opacity:0; stroke-width: 3; stroke: #000000" d="M 300,140 A 10,10 0 0 0 290,150"/>
    <path style="fill: none; fill-opacity:0; stroke-width: 3; stroke: #000000" d="M 406.55,150 A 10,10 0 0 0 396.55,140"/>
    <line style="fill: none; fill-opacity:0; stroke-width: 3; stroke: #000000" x1="290" y1="150" x2="290" y2="169"/>
    <line style="fill: none; fill-opacity:0; stroke-width: 3; stroke: #000000" x1="406.55" y1="150" x2="406.55" y2="169"/>
    <path style="fill: none; fill-opacity:0; stroke-width: 3; stroke: #000000" d="M 290,169 A 10,10 0 0 0 300,179"/>
    <path style="fill: none; fill-opacity:0; stroke-width: 3; stroke: #000000" d="M 396.55,179 A 10,10 0 0 0 406.55,169"/>
    <text font-size="12.8" style="fill: #000000;text-anchor:middle;font-family:sans-serif;font-style:normal;font-weight:normal" x="348.275" y="163.4">
      <tspan x="348.275" y="163.4">/partyrelations</tspan>
    </text>
  </g>
  <g>
    <line style="fill: none; fill-opacity:0; stroke-width: 3; stroke: #000000" x1="349.236" y1="198.514" x2="348.977" y2="187.999"/>
    <polygon style="fill: #000000" points="351.976,187.925 348.829,182.001 345.978,188.073 "/>
    <polygon style="fill: none; fill-opacity:0; stroke-width: 3; stroke: #000000" points="351.976,187.925 348.829,182.001 345.978,188.073 "/>
  </g>
  <g>
    <line style="fill: none; fill-opacity:0; stroke-width: 3; stroke: #000000" x1="316.408" y1="138.51" x2="258.853" y2="100.6"/>
    <polygon style="fill: #000000" points="260.503,98.0948 253.842,97.2997 257.203,103.105 "/>
    <polygon style="fill: none; fill-opacity:0; stroke-width: 3; stroke: #000000" points="260.503,98.0948 253.842,97.2997 257.203,103.105 "/>
  </g>
</svg>
