<?xml version="1.0" encoding="UTF-8" standalone="no"?>
<!DOCTYPE svg PUBLIC "-//W3C//DTD SVG 1.0//EN" "http://www.w3.org/TR/2001/PR-SVG-20010719/DTD/svg10.dtd">
<svg width="26cm" height="10cm" viewBox="14 58 520 199" xmlns="http://www.w3.org/2000/svg" xmlns:xlink="http://www.w3.org/1999/xlink">
  <g>
    <rect style="fill: #d6d1f5" x="34" y="200" width="83.9" height="55"/>
    <path style="fill: #d6d1f5" d="M 34,200 A 10,10 0 0 0 24,210 L 34,210 z"/>
    <path style="fill: #d6d1f5" d="M 127.9,210 A 10,10 0 0 0 117.9,200 L 117.9,210 z"/>
    <rect style="fill: #d6d1f5" x="24" y="210" width="103.9" height="35"/>
    <path style="fill: #d6d1f5" d="M 24,245 A 10,10 0 0 0 34,255 L 34,245 z"/>
    <path style="fill: #d6d1f5" d="M 117.9,255 A 10,10 0 0 0 127.9,245 L 117.9,245 z"/>
    <line style="fill: none; fill-opacity:0; stroke-width: 3; stroke: #000000" x1="34" y1="200" x2="117.9" y2="200"/>
    <line style="fill: none; fill-opacity:0; stroke-width: 3; stroke: #000000" x1="34" y1="255" x2="117.9" y2="255"/>
    <path style="fill: none; fill-opacity:0; stroke-width: 3; stroke: #000000" d="M 34,200 A 10,10 0 0 0 24,210"/>
    <path style="fill: none; fill-opacity:0; stroke-width: 3; stroke: #000000" d="M 127.9,210 A 10,10 0 0 0 117.9,200"/>
    <line style="fill: none; fill-opacity:0; stroke-width: 3; stroke: #000000" x1="24" y1="210" x2="24" y2="245"/>
    <line style="fill: none; fill-opacity:0; stroke-width: 3; stroke: #000000" x1="127.9" y1="210" x2="127.9" y2="245"/>
    <path style="fill: none; fill-opacity:0; stroke-width: 3; stroke: #000000" d="M 24,245 A 10,10 0 0 0 34,255"/>
    <path style="fill: none; fill-opacity:0; stroke-width: 3; stroke: #000000" d="M 117.9,255 A 10,10 0 0 0 127.9,245"/>
    <text font-size="12.8" style="fill: #000000;text-anchor:middle;font-family:sans-serif;font-style:normal;font-weight:normal" x="75.95" y="223.4">
      <tspan x="75.95" y="223.4">/parties</tspan>
      <tspan x="75.95" y="239.4">type: person</tspan>
    </text>
  </g>
  <g>
    <rect style="fill: #d6d1f5" x="106" y="60" width="77.2" height="55"/>
    <path style="fill: #d6d1f5" d="M 106,60 A 10,10 0 0 0 96,70 L 106,70 z"/>
    <path style="fill: #d6d1f5" d="M 193.2,70 A 10,10 0 0 0 183.2,60 L 183.2,70 z"/>
    <rect style="fill: #d6d1f5" x="96" y="70" width="97.2" height="35"/>
    <path style="fill: #d6d1f5" d="M 96,105 A 10,10 0 0 0 106,115 L 106,105 z"/>
    <path style="fill: #d6d1f5" d="M 183.2,115 A 10,10 0 0 0 193.2,105 L 183.2,105 z"/>
    <line style="fill: none; fill-opacity:0; stroke-width: 3; stroke: #000000" x1="106" y1="60" x2="183.2" y2="60"/>
    <line style="fill: none; fill-opacity:0; stroke-width: 3; stroke: #000000" x1="106" y1="115" x2="183.2" y2="115"/>
    <path style="fill: none; fill-opacity:0; stroke-width: 3; stroke: #000000" d="M 106,60 A 10,10 0 0 0 96,70"/>
    <path style="fill: none; fill-opacity:0; stroke-width: 3; stroke: #000000" d="M 193.2,70 A 10,10 0 0 0 183.2,60"/>
    <line style="fill: none; fill-opacity:0; stroke-width: 3; stroke: #000000" x1="96" y1="70" x2="96" y2="105"/>
    <line style="fill: none; fill-opacity:0; stroke-width: 3; stroke: #000000" x1="193.2" y1="70" x2="193.2" y2="105"/>
    <path style="fill: none; fill-opacity:0; stroke-width: 3; stroke: #000000" d="M 96,105 A 10,10 0 0 0 106,115"/>
    <path style="fill: none; fill-opacity:0; stroke-width: 3; stroke: #000000" d="M 183.2,115 A 10,10 0 0 0 193.2,105"/>
    <text font-size="12.8" style="fill: #000000;text-anchor:middle;font-family:sans-serif;font-style:normal;font-weight:normal" x="144.6" y="83.4">
      <tspan x="144.6" y="83.4">/parties</tspan>
      <tspan x="144.6" y="99.4">type: group</tspan>
    </text>
  </g>
  <text font-size="12.8" style="fill: #000000;text-anchor:start;font-family:sans-serif;font-style:normal;font-weight:normal" x="75.95" y="227.5">
    <tspan x="75.95" y="227.5"></tspan>
  </text>
  <text font-size="12.8" style="fill: #000000;text-anchor:start;font-family:sans-serif;font-style:normal;font-weight:normal" x="75.95" y="227.5">
    <tspan x="75.95" y="227.5"></tspan>
  </text>
  <g>
    <rect style="fill: #d6d1f5" x="250" y="200" width="83.9" height="55"/>
    <path style="fill: #d6d1f5" d="M 250,200 A 10,10 0 0 0 240,210 L 250,210 z"/>
    <path style="fill: #d6d1f5" d="M 343.9,210 A 10,10 0 0 0 333.9,200 L 333.9,210 z"/>
    <rect style="fill: #d6d1f5" x="240" y="210" width="103.9" height="35"/>
    <path style="fill: #d6d1f5" d="M 240,245 A 10,10 0 0 0 250,255 L 250,245 z"/>
    <path style="fill: #d6d1f5" d="M 333.9,255 A 10,10 0 0 0 343.9,245 L 333.9,245 z"/>
    <line style="fill: none; fill-opacity:0; stroke-width: 3; stroke: #000000" x1="250" y1="200" x2="333.9" y2="200"/>
    <line style="fill: none; fill-opacity:0; stroke-width: 3; stroke: #000000" x1="250" y1="255" x2="333.9" y2="255"/>
    <path style="fill: none; fill-opacity:0; stroke-width: 3; stroke: #000000" d="M 250,200 A 10,10 0 0 0 240,210"/>
    <path style="fill: none; fill-opacity:0; stroke-width: 3; stroke: #000000" d="M 343.9,210 A 10,10 0 0 0 333.9,200"/>
    <line style="fill: none; fill-opacity:0; stroke-width: 3; stroke: #000000" x1="240" y1="210" x2="240" y2="245"/>
    <line style="fill: none; fill-opacity:0; stroke-width: 3; stroke: #000000" x1="343.9" y1="210" x2="343.9" y2="245"/>
    <path style="fill: none; fill-opacity:0; stroke-width: 3; stroke: #000000" d="M 240,245 A 10,10 0 0 0 250,255"/>
    <path style="fill: none; fill-opacity:0; stroke-width: 3; stroke: #000000" d="M 333.9,255 A 10,10 0 0 0 343.9,245"/>
    <text font-size="12.8" style="fill: #000000;text-anchor:middle;font-family:sans-serif;font-style:normal;font-weight:normal" x="291.95" y="223.4">
      <tspan x="291.95" y="223.4">/parties</tspan>
      <tspan x="291.95" y="239.4">type: person</tspan>
    </text>
  </g>
  <text font-size="12.8" style="fill: #000000;text-anchor:start;font-family:sans-serif;font-style:normal;font-weight:normal" x="150" y="70">
    <tspan x="150" y="70"></tspan>
  </text>
  <g>
    <rect style="fill: #ffe6b4" x="26" y="140" width="96.55" height="39"/>
    <path style="fill: #ffe6b4" d="M 26,140 A 10,10 0 0 0 16,150 L 26,150 z"/>
    <path style="fill: #ffe6b4" d="M 132.55,150 A 10,10 0 0 0 122.55,140 L 122.55,150 z"/>
    <rect style="fill: #ffe6b4" x="16" y="150" width="116.55" height="19"/>
    <path style="fill: #ffe6b4" d="M 16,169 A 10,10 0 0 0 26,179 L 26,169 z"/>
    <path style="fill: #ffe6b4" d="M 122.55,179 A 10,10 0 0 0 132.55,169 L 122.55,169 z"/>
    <line style="fill: none; fill-opacity:0; stroke-width: 3; stroke: #000000" x1="26" y1="140" x2="122.55" y2="140"/>
    <line style="fill: none; fill-opacity:0; stroke-width: 3; stroke: #000000" x1="26" y1="179" x2="122.55" y2="179"/>
    <path style="fill: none; fill-opacity:0; stroke-width: 3; stroke: #000000" d="M 26,140 A 10,10 0 0 0 16,150"/>
    <path style="fill: none; fill-opacity:0; stroke-width: 3; stroke: #000000" d="M 132.55,150 A 10,10 0 0 0 122.55,140"/>
    <line style="fill: none; fill-opacity:0; stroke-width: 3; stroke: #000000" x1="16" y1="150" x2="16" y2="169"/>
    <line style="fill: none; fill-opacity:0; stroke-width: 3; stroke: #000000" x1="132.55" y1="150" x2="132.55" y2="169"/>
    <path style="fill: none; fill-opacity:0; stroke-width: 3; stroke: #000000" d="M 16,169 A 10,10 0 0 0 26,179"/>
    <path style="fill: none; fill-opacity:0; stroke-width: 3; stroke: #000000" d="M 122.55,179 A 10,10 0 0 0 132.55,169"/>
    <text font-size="12.8" style="fill: #000000;text-anchor:middle;font-family:sans-serif;font-style:normal;font-weight:normal" x="74.275" y="163.4">
      <tspan x="74.275" y="163.4">/partyrelations</tspan>
    </text>
  </g>
  <text font-size="12.7998" style="fill: #000000;text-anchor:start;font-family:sans-serif;font-style:normal;font-weight:normal" x="74.275" y="159.5">
    <tspan x="74.275" y="159.5"></tspan>
  </text>
  <text font-size="12.7998" style="fill: #000000;text-anchor:start;font-family:sans-serif;font-style:normal;font-weight:normal" x="74.275" y="159.5">
    <tspan x="74.275" y="159.5"></tspan>
  </text>
  <g>
    <rect style="fill: #ffe6b4" x="162" y="140" width="96.55" height="39"/>
    <path style="fill: #ffe6b4" d="M 162,140 A 10,10 0 0 0 152,150 L 162,150 z"/>
    <path style="fill: #ffe6b4" d="M 268.55,150 A 10,10 0 0 0 258.55,140 L 258.55,150 z"/>
    <rect style="fill: #ffe6b4" x="152" y="150" width="116.55" height="19"/>
    <path style="fill: #ffe6b4" d="M 152,169 A 10,10 0 0 0 162,179 L 162,169 z"/>
    <path style="fill: #ffe6b4" d="M 258.55,179 A 10,10 0 0 0 268.55,169 L 258.55,169 z"/>
    <line style="fill: none; fill-opacity:0; stroke-width: 3; stroke: #000000" x1="162" y1="140" x2="258.55" y2="140"/>
    <line style="fill: none; fill-opacity:0; stroke-width: 3; stroke: #000000" x1="162" y1="179" x2="258.55" y2="179"/>
    <path style="fill: none; fill-opacity:0; stroke-width: 3; stroke: #000000" d="M 162,140 A 10,10 0 0 0 152,150"/>
    <path style="fill: none; fill-opacity:0; stroke-width: 3; stroke: #000000" d="M 268.55,150 A 10,10 0 0 0 258.55,140"/>
    <line style="fill: none; fill-opacity:0; stroke-width: 3; stroke: #000000" x1="152" y1="150" x2="152" y2="169"/>
    <line style="fill: none; fill-opacity:0; stroke-width: 3; stroke: #000000" x1="268.55" y1="150" x2="268.55" y2="169"/>
    <path style="fill: none; fill-opacity:0; stroke-width: 3; stroke: #000000" d="M 152,169 A 10,10 0 0 0 162,179"/>
    <path style="fill: none; fill-opacity:0; stroke-width: 3; stroke: #000000" d="M 258.55,179 A 10,10 0 0 0 268.55,169"/>
    <text font-size="12.8" style="fill: #000000;text-anchor:middle;font-family:sans-serif;font-style:normal;font-weight:normal" x="210.275" y="163.4">
      <tspan x="210.275" y="163.4">/partyrelations</tspan>
    </text>
  </g>
  <text font-size="12.7998" style="fill: #000000;text-anchor:start;font-family:sans-serif;font-style:normal;font-weight:normal" x="74.275" y="159.5">
    <tspan x="74.275" y="159.5"></tspan>
  </text>
  <g>
    <line style="fill: none; fill-opacity:0; stroke-width: 3; stroke: #000000" x1="75.236" y1="198.514" x2="74.977" y2="187.999"/>
    <polygon style="fill: #000000" points="77.9761,187.925 74.8292,182.001 71.9779,188.073 "/>
    <polygon style="fill: none; fill-opacity:0; stroke-width: 3; stroke: #000000" points="77.9761,187.925 74.8292,182.001 71.9779,188.073 "/>
  </g>
  <g>
    <line style="fill: none; fill-opacity:0; stroke-width: 3; stroke: #000000" x1="257.134" y1="198.514" x2="241.263" y2="185.3"/>
    <polygon style="fill: #000000" points="243.183,182.994 236.652,181.461 239.344,187.605 "/>
    <polygon style="fill: none; fill-opacity:0; stroke-width: 3; stroke: #000000" points="243.183,182.994 236.652,181.461 239.344,187.605 "/>
  </g>
  <g>
    <line style="fill: none; fill-opacity:0; stroke-width: 3; stroke: #000000" x1="94.7836" y1="138.503" x2="111.047" y2="121.852"/>
    <polygon style="fill: #000000" points="113.194,123.948 115.24,117.559 108.901,119.755 "/>
    <polygon style="fill: none; fill-opacity:0; stroke-width: 3; stroke: #000000" points="113.194,123.948 115.24,117.559 108.901,119.755 "/>
  </g>
  <g>
    <line style="fill: none; fill-opacity:0; stroke-width: 3; stroke: #000000" x1="191.122" y1="138.503" x2="176.094" y2="122.027"/>
    <polygon style="fill: #000000" points="178.311,120.006 172.051,117.595 173.878,124.049 "/>
    <polygon style="fill: none; fill-opacity:0; stroke-width: 3; stroke: #000000" points="178.311,120.006 172.051,117.595 173.878,124.049 "/>
  </g>
  <g>
    <rect style="fill: #d6d1f5" x="370" y="60" width="77.2" height="55"/>
    <path style="fill: #d6d1f5" d="M 370,60 A 10,10 0 0 0 360,70 L 370,70 z"/>
    <path style="fill: #d6d1f5" d="M 457.2,70 A 10,10 0 0 0 447.2,60 L 447.2,70 z"/>
    <rect style="fill: #d6d1f5" x="360" y="70" width="97.2" height="35"/>
    <path style="fill: #d6d1f5" d="M 360,105 A 10,10 0 0 0 370,115 L 370,105 z"/>
    <path style="fill: #d6d1f5" d="M 447.2,115 A 10,10 0 0 0 457.2,105 L 447.2,105 z"/>
    <line style="fill: none; fill-opacity:0; stroke-width: 3; stroke: #000000" x1="370" y1="60" x2="447.2" y2="60"/>
    <line style="fill: none; fill-opacity:0; stroke-width: 3; stroke: #000000" x1="370" y1="115" x2="447.2" y2="115"/>
    <path style="fill: none; fill-opacity:0; stroke-width: 3; stroke: #000000" d="M 370,60 A 10,10 0 0 0 360,70"/>
    <path style="fill: none; fill-opacity:0; stroke-width: 3; stroke: #000000" d="M 457.2,70 A 10,10 0 0 0 447.2,60"/>
    <line style="fill: none; fill-opacity:0; stroke-width: 3; stroke: #000000" x1="360" y1="70" x2="360" y2="105"/>
    <line style="fill: none; fill-opacity:0; stroke-width: 3; stroke: #000000" x1="457.2" y1="70" x2="457.2" y2="105"/>
    <path style="fill: none; fill-opacity:0; stroke-width: 3; stroke: #000000" d="M 360,105 A 10,10 0 0 0 370,115"/>
    <path style="fill: none; fill-opacity:0; stroke-width: 3; stroke: #000000" d="M 447.2,115 A 10,10 0 0 0 457.2,105"/>
    <text font-size="12.8" style="fill: #000000;text-anchor:middle;font-family:sans-serif;font-style:normal;font-weight:normal" x="408.6" y="83.4">
      <tspan x="408.6" y="83.4">/parties</tspan>
      <tspan x="408.6" y="99.4">type: group</tspan>
    </text>
  </g>
  <text font-size="12.8" style="fill: #000000;text-anchor:start;font-family:sans-serif;font-style:normal;font-weight:normal" x="339.95" y="227.5">
    <tspan x="339.95" y="227.5"></tspan>
  </text>
  <text font-size="12.8" style="fill: #000000;text-anchor:start;font-family:sans-serif;font-style:normal;font-weight:normal" x="339.95" y="227.5">
    <tspan x="339.95" y="227.5"></tspan>
  </text>
  <g>
    <rect style="fill: #d6d1f5" x="434" y="200" width="83.9" height="55"/>
    <path style="fill: #d6d1f5" d="M 434,200 A 10,10 0 0 0 424,210 L 434,210 z"/>
    <path style="fill: #d6d1f5" d="M 527.9,210 A 10,10 0 0 0 517.9,200 L 517.9,210 z"/>
    <rect style="fill: #d6d1f5" x="424" y="210" width="103.9" height="35"/>
    <path style="fill: #d6d1f5" d="M 424,245 A 10,10 0 0 0 434,255 L 434,245 z"/>
    <path style="fill: #d6d1f5" d="M 517.9,255 A 10,10 0 0 0 527.9,245 L 517.9,245 z"/>
    <line style="fill: none; fill-opacity:0; stroke-width: 3; stroke: #000000" x1="434" y1="200" x2="517.9" y2="200"/>
    <line style="fill: none; fill-opacity:0; stroke-width: 3; stroke: #000000" x1="434" y1="255" x2="517.9" y2="255"/>
    <path style="fill: none; fill-opacity:0; stroke-width: 3; stroke: #000000" d="M 434,200 A 10,10 0 0 0 424,210"/>
    <path style="fill: none; fill-opacity:0; stroke-width: 3; stroke: #000000" d="M 527.9,210 A 10,10 0 0 0 517.9,200"/>
    <line style="fill: none; fill-opacity:0; stroke-width: 3; stroke: #000000" x1="424" y1="210" x2="424" y2="245"/>
    <line style="fill: none; fill-opacity:0; stroke-width: 3; stroke: #000000" x1="527.9" y1="210" x2="527.9" y2="245"/>
    <path style="fill: none; fill-opacity:0; stroke-width: 3; stroke: #000000" d="M 424,245 A 10,10 0 0 0 434,255"/>
    <path style="fill: none; fill-opacity:0; stroke-width: 3; stroke: #000000" d="M 517.9,255 A 10,10 0 0 0 527.9,245"/>
    <text font-size="12.8" style="fill: #000000;text-anchor:middle;font-family:sans-serif;font-style:normal;font-weight:normal" x="475.95" y="223.4">
      <tspan x="475.95" y="223.4">/parties</tspan>
      <tspan x="475.95" y="239.4">type: person</tspan>
    </text>
  </g>
  <text font-size="12.8" style="fill: #000000;text-anchor:start;font-family:sans-serif;font-style:normal;font-weight:normal" x="475.95" y="227.5">
    <tspan x="475.95" y="227.5"></tspan>
  </text>
  <text font-size="12.8" style="fill: #000000;text-anchor:start;font-family:sans-serif;font-style:normal;font-weight:normal" x="414" y="70">
    <tspan x="414" y="70"></tspan>
  </text>
  <g>
    <rect style="fill: #ffe6b4" x="290" y="140" width="96.55" height="39"/>
    <path style="fill: #ffe6b4" d="M 290,140 A 10,10 0 0 0 280,150 L 290,150 z"/>
    <path style="fill: #ffe6b4" d="M 396.55,150 A 10,10 0 0 0 386.55,140 L 386.55,150 z"/>
    <rect style="fill: #ffe6b4" x="280" y="150" width="116.55" height="19"/>
    <path style="fill: #ffe6b4" d="M 280,169 A 10,10 0 0 0 290,179 L 290,169 z"/>
    <path style="fill: #ffe6b4" d="M 386.55,179 A 10,10 0 0 0 396.55,169 L 386.55,169 z"/>
    <line style="fill: none; fill-opacity:0; stroke-width: 3; stroke: #000000" x1="290" y1="140" x2="386.55" y2="140"/>
    <line style="fill: none; fill-opacity:0; stroke-width: 3; stroke: #000000" x1="290" y1="179" x2="386.55" y2="179"/>
    <path style="fill: none; fill-opacity:0; stroke-width: 3; stroke: #000000" d="M 290,140 A 10,10 0 0 0 280,150"/>
    <path style="fill: none; fill-opacity:0; stroke-width: 3; stroke: #000000" d="M 396.55,150 A 10,10 0 0 0 386.55,140"/>
    <line style="fill: none; fill-opacity:0; stroke-width: 3; stroke: #000000" x1="280" y1="150" x2="280" y2="169"/>
    <line style="fill: none; fill-opacity:0; stroke-width: 3; stroke: #000000" x1="396.55" y1="150" x2="396.55" y2="169"/>
    <path style="fill: none; fill-opacity:0; stroke-width: 3; stroke: #000000" d="M 280,169 A 10,10 0 0 0 290,179"/>
    <path style="fill: none; fill-opacity:0; stroke-width: 3; stroke: #000000" d="M 386.55,179 A 10,10 0 0 0 396.55,169"/>
    <text font-size="12.8" style="fill: #000000;text-anchor:middle;font-family:sans-serif;font-style:normal;font-weight:normal" x="338.275" y="163.4">
      <tspan x="338.275" y="163.4">/partyrelations</tspan>
    </text>
  </g>
  <text font-size="12.7998" style="fill: #000000;text-anchor:start;font-family:sans-serif;font-style:normal;font-weight:normal" x="338.275" y="159.5">
    <tspan x="338.275" y="159.5"></tspan>
  </text>
  <text font-size="12.7998" style="fill: #000000;text-anchor:start;font-family:sans-serif;font-style:normal;font-weight:normal" x="338.275" y="159.5">
    <tspan x="338.275" y="159.5"></tspan>
  </text>
  <g>
    <rect style="fill: #ffe6b4" x="426" y="140" width="96.55" height="39"/>
    <path style="fill: #ffe6b4" d="M 426,140 A 10,10 0 0 0 416,150 L 426,150 z"/>
    <path style="fill: #ffe6b4" d="M 532.55,150 A 10,10 0 0 0 522.55,140 L 522.55,150 z"/>
    <rect style="fill: #ffe6b4" x="416" y="150" width="116.55" height="19"/>
    <path style="fill: #ffe6b4" d="M 416,169 A 10,10 0 0 0 426,179 L 426,169 z"/>
    <path style="fill: #ffe6b4" d="M 522.55,179 A 10,10 0 0 0 532.55,169 L 522.55,169 z"/>
    <line style="fill: none; fill-opacity:0; stroke-width: 3; stroke: #000000" x1="426" y1="140" x2="522.55" y2="140"/>
    <line style="fill: none; fill-opacity:0; stroke-width: 3; stroke: #000000" x1="426" y1="179" x2="522.55" y2="179"/>
    <path style="fill: none; fill-opacity:0; stroke-width: 3; stroke: #000000" d="M 426,140 A 10,10 0 0 0 416,150"/>
    <path style="fill: none; fill-opacity:0; stroke-width: 3; stroke: #000000" d="M 532.55,150 A 10,10 0 0 0 522.55,140"/>
    <line style="fill: none; fill-opacity:0; stroke-width: 3; stroke: #000000" x1="416" y1="150" x2="416" y2="169"/>
    <line style="fill: none; fill-opacity:0; stroke-width: 3; stroke: #000000" x1="532.55" y1="150" x2="532.55" y2="169"/>
    <path style="fill: none; fill-opacity:0; stroke-width: 3; stroke: #000000" d="M 416,169 A 10,10 0 0 0 426,179"/>
    <path style="fill: none; fill-opacity:0; stroke-width: 3; stroke: #000000" d="M 522.55,179 A 10,10 0 0 0 532.55,169"/>
    <text font-size="12.8" style="fill: #000000;text-anchor:middle;font-family:sans-serif;font-style:normal;font-weight:normal" x="474.275" y="163.4">
      <tspan x="474.275" y="163.4">/partyrelations</tspan>
    </text>
  </g>
  <text font-size="12.7998" style="fill: #000000;text-anchor:start;font-family:sans-serif;font-style:normal;font-weight:normal" x="338.275" y="159.5">
    <tspan x="338.275" y="159.5"></tspan>
  </text>
  <g>
    <line style="fill: none; fill-opacity:0; stroke-width: 3; stroke: #000000" x1="475.236" y1="198.514" x2="474.977" y2="187.999"/>
    <polygon style="fill: #000000" points="477.976,187.925 474.829,182.001 471.978,188.073 "/>
    <polygon style="fill: none; fill-opacity:0; stroke-width: 3; stroke: #000000" points="477.976,187.925 474.829,182.001 471.978,188.073 "/>
  </g>
  <g>
    <line style="fill: none; fill-opacity:0; stroke-width: 3; stroke: #000000" x1="358.784" y1="138.503" x2="375.047" y2="121.852"/>
    <polygon style="fill: #000000" points="377.194,123.948 379.24,117.559 372.901,119.755 "/>
    <polygon style="fill: none; fill-opacity:0; stroke-width: 3; stroke: #000000" points="377.194,123.948 379.24,117.559 372.901,119.755 "/>
  </g>
  <g>
    <line style="fill: none; fill-opacity:0; stroke-width: 3; stroke: #000000" x1="455.122" y1="138.503" x2="440.094" y2="122.027"/>
    <polygon style="fill: #000000" points="442.311,120.006 436.051,117.595 437.878,124.049 "/>
    <polygon style="fill: none; fill-opacity:0; stroke-width: 3; stroke: #000000" points="442.311,120.006 436.051,117.595 437.878,124.049 "/>
  </g>
  <g>
    <line style="fill: none; fill-opacity:0; stroke-width: 3; stroke: #000000" x1="311.697" y1="198.514" x2="319.745" y2="186.699"/>
    <polygon style="fill: #000000" points="322.225,188.388 323.124,181.741 317.266,185.01 "/>
    <polygon style="fill: none; fill-opacity:0; stroke-width: 3; stroke: #000000" points="322.225,188.388 323.124,181.741 317.266,185.01 "/>
  </g>
</svg>
